<?xml version="1.0" encoding="UTF-8" standalone="no"?>
<!-- Generator: Adobe Illustrator 19.1.0, SVG Export Plug-In . SVG Version: 6.00 Build 0)  -->

<svg
   xmlns:dc="http://purl.org/dc/elements/1.1/"
   xmlns:cc="http://creativecommons.org/ns#"
   xmlns:rdf="http://www.w3.org/1999/02/22-rdf-syntax-ns#"
   xmlns:svg="http://www.w3.org/2000/svg"
   xmlns="http://www.w3.org/2000/svg"
   xmlns:sodipodi="http://sodipodi.sourceforge.net/DTD/sodipodi-0.dtd"
   xmlns:inkscape="http://www.inkscape.org/namespaces/inkscape"
   version="1.1"
   id="Layer_1"
   x="0px"
   y="0px"
   viewBox="0 0 64.741698 15.161525"
   enable-background="new 0 0 447.1 96.4"
   xml:space="preserve"
   inkscape:version="0.91 r13725"
   sodipodi:docname="ghosts.svg"
   width="64.741699"
   height="15.161525"><metadata
     id="metadata3653"><rdf:RDF><cc:Work
         rdf:about=""><dc:format>image/svg+xml</dc:format><dc:type
           rdf:resource="http://purl.org/dc/dcmitype/StillImage" /><dc:title></dc:title></cc:Work></rdf:RDF></metadata><defs
     id="defs3651" /><sodipodi:namedview
     pagecolor="#ffffff"
     bordercolor="#666666"
     borderopacity="1"
     objecttolerance="10"
     gridtolerance="10"
     guidetolerance="10"
     inkscape:pageopacity="0"
     inkscape:pageshadow="2"
     inkscape:window-width="1450"
     inkscape:window-height="867"
     id="namedview3649"
     showgrid="true"
     inkscape:snap-grids="true"
     showguides="true"
     inkscape:guide-bbox="true"
     inkscape:zoom="6.1910086"
     inkscape:cx="48.953506"
     inkscape:cy="38.739036"
     inkscape:window-x="0"
     inkscape:window-y="0"
     inkscape:window-maximized="0"
     inkscape:current-layer="Layer_1"
     fit-margin-top="0"
     fit-margin-left="0"
     fit-margin-right="0"
     fit-margin-bottom="0"><inkscape:grid
       type="xygrid"
       id="grid3655"
       spacingx="17"
       spacingy="15"
       empspacing="4"
       dotted="false"
       originx="0.13085259"
       originy="0.099999116" /><sodipodi:guide
       position="11.760622,21.421243"
       orientation="1,0"
       id="guide4476" /></sodipodi:namedview><g
     id="g3551"
     transform="matrix(0.32608696,0,0,0.32608696,-0.29347826,-16.34398)"><path
       d="M 21.7,50.5 C 10.4,50.7 0.9,65.4 0.9,83.5 l 0,10.9 c 0,0.8 1,1.3 1.6,0.7 l 3.9,-3.9 c 0.7,-0.7 2,-0.7 2.7,0 l 4.9,5 c 0.4,0.4 1,0.4 1.3,0 l 4.9,-5 c 0.7,-0.8 2,-0.8 2.7,0 l 4.9,5 c 0.4,0.4 1,0.4 1.3,0 l 4.9,-5 c 0.7,-0.8 2,-0.8 2.7,0 l 3.9,3.9 c 0.6,0.6 1.6,0.2 1.6,-0.7 l 0,-11 C 42.4,65.3 33,50.7 21.7,50.5 Z"
       id="path3553"
       inkscape:connector-curvature="0"
       style="fill:#ff002b" /><ellipse
       cx="16.200001"
       cy="67.699997"
       rx="4.9000001"
       ry="6.4000001"
       id="ellipse3555"
       style="fill:#ffffff" /><circle
       cx="17.5"
       cy="68.199997"
       r="2.3"
       id="circle3557"
       style="fill:#0031ff" /><ellipse
       cx="28.1"
       cy="67.699997"
       rx="4.9000001"
       ry="6.4000001"
       id="ellipse3559"
       style="fill:#ffffff" /><circle
       cx="29.5"
       cy="68.199997"
       r="2.3"
       id="circle3561"
       style="fill:#0031ff" /></g><g
     id="g3587"
     transform="matrix(0.32608696,0,0,0.32608696,-32.280638,-16.305866)"><path
       d="m 172.6,50.5 c -11.3,0.2 -20.8,14.9 -20.8,33 l 0,5.3 c 0,0.7 0.3,1.3 0.7,1.8 l 5.6,5.6 c 0.4,0.4 1,0.4 1.4,0 l 4.8,-4.9 c 0.8,-0.8 2,-0.8 2.7,0 l 4.8,4.9 c 0.4,0.4 1,0.4 1.4,0 l 4.8,-4.9 c 0.7,-0.8 2,-0.8 2.7,0 l 4.8,4.9 c 0.4,0.4 1,0.4 1.4,0 l 5.6,-5.6 c 0.5,-0.5 0.7,-1.1 0.7,-1.8 l 0,-5.3 c 0.1,-18.2 -9.3,-32.8 -20.6,-33 z"
       id="path3589"
       inkscape:connector-curvature="0"
       style="fill:#ff002b" /><ellipse
       cx="179"
       cy="67.699997"
       rx="4.9000001"
       ry="6.4000001"
       id="ellipse3591"
       style="fill:#ffffff" /><circle
       cx="177.60001"
       cy="68.199997"
       r="2.3"
       id="circle3593"
       style="fill:#0031ff" /><ellipse
       cx="167.10001"
       cy="67.699997"
       rx="4.9000001"
       ry="6.4000001"
       id="ellipse3595"
       style="fill:#ffffff" /><circle
       cx="165.7"
       cy="68.199997"
       r="2.3"
       id="circle3597"
       style="fill:#0031ff" /></g><g
     id="g3611"
     transform="matrix(0.32608696,0,0,0.32608696,-48.316241,-16.467391)"><path
       d="m 273.2,50.5 c -11.3,0.2 -20.8,14.9 -20.8,33 l 0,5.3 c 0,0.7 0.3,1.3 0.7,1.8 l 5.6,5.6 c 0.4,0.4 1,0.4 1.4,0 l 4.8,-4.9 c 0.8,-0.8 2,-0.8 2.7,0 l 4.8,4.9 c 0.4,0.4 1,0.4 1.4,0 l 4.8,-4.9 c 0.7,-0.8 2,-0.8 2.7,0 l 4.8,4.9 c 0.4,0.4 1,0.4 1.4,0 l 5.6,-5.6 c 0.5,-0.5 0.7,-1.1 0.7,-1.8 l 0,-5.3 c 0.1,-18.2 -9.3,-32.8 -20.6,-33 z"
       id="path3613"
       inkscape:connector-curvature="0"
       style="fill:#ff002b" /><ellipse
       cx="279.60001"
       cy="67.699997"
       rx="4.9000001"
       ry="6.4000001"
       id="ellipse3615"
       style="fill:#ffffff" /><circle
       cx="279.5"
       cy="70.699997"
       r="2.3"
       id="circle3617"
       style="fill:#0031ff" /><ellipse
       cx="267.70001"
       cy="67.699997"
       rx="4.9000001"
       ry="6.4000001"
       id="ellipse3619"
       style="fill:#ffffff" /><circle
       cx="267.5"
       cy="70.699997"
       r="2.3"
       id="circle3621"
       style="fill:#0031ff" /></g><g
     id="g3635"
     transform="matrix(0.32608696,0,0,0.32608696,-63.867259,-16.467391)"><path
       d="M 373.8,50.5 C 362.5,50.7 353,65.4 353,83.5 l 0,5.3 c 0,0.7 0.3,1.3 0.7,1.8 l 5.6,5.6 c 0.4,0.4 1,0.4 1.4,0 l 4.8,-4.9 c 0.8,-0.8 2,-0.8 2.7,0 l 4.8,4.9 c 0.4,0.4 1,0.4 1.4,0 l 4.8,-4.9 c 0.7,-0.8 2,-0.8 2.7,0 l 4.8,4.9 c 0.4,0.4 1,0.4 1.4,0 l 5.6,-5.6 c 0.5,-0.5 0.7,-1.1 0.7,-1.8 l 0,-5.3 c 0.1,-18.2 -9.3,-32.8 -20.6,-33 z"
       id="path3637"
       inkscape:connector-curvature="0"
       style="fill:#ff002b" /><ellipse
       cx="380.20001"
       cy="67.699997"
       rx="4.9000001"
       ry="6.4000001"
       id="ellipse3639"
       style="fill:#ffffff" /><circle
       cx="380.10001"
       cy="64.800003"
       r="2.3"
       id="circle3641"
       style="fill:#0031ff" /><ellipse
       cx="368.29999"
       cy="67.699997"
       rx="4.9000001"
       ry="6.4000001"
       id="ellipse3643"
       style="fill:#ffffff" /><circle
       cx="368.10001"
       cy="64.800003"
       r="2.3"
       id="circle3645"
       style="fill:#0031ff" /></g></svg>