<?xml version="1.0" encoding="utf-8"?>
<!-- Generator: Adobe Illustrator 19.1.0, SVG Export Plug-In . SVG Version: 6.00 Build 0)  -->
<!DOCTYPE svg PUBLIC "-//W3C//DTD SVG 1.1//EN" "http://www.w3.org/Graphics/SVG/1.1/DTD/svg11.dtd">
<svg version="1.1" id="Layer_1" xmlns="http://www.w3.org/2000/svg" xmlns:xlink="http://www.w3.org/1999/xlink" x="0px" y="0px"
	 viewBox="0 0 658.9 721.3" enable-background="new 0 0 658.9 721.3" xml:space="preserve">
<g>
	<path fill="none" stroke="#0000FF" stroke-width="1.2857" stroke-miterlimit="10" d="M71,206.4h68.2c3.4,0,6.1-2.7,6.1-6.1v-0.7
		c0-3.4-2.7-6.1-6.1-6.1H71c-3.4,0-6.1,2.7-6.1,6.1v0.7C64.9,203.6,67.7,206.4,71,206.4z"/>
	<path fill="none" stroke="#0000FF" stroke-width="1.2857" stroke-miterlimit="10" d="M521,206.4h67.5c3.4,0,6.1-2.7,6.1-6.1v-0.7
		c0-3.4-2.7-6.1-6.1-6.1H521c-3.4,0-6.1,2.7-6.1,6.1v0.7C514.9,203.6,517.7,206.4,521,206.4z"/>
	<path fill="none" stroke="#0000FF" stroke-width="1.2857" stroke-miterlimit="10" d="M394.4,527.8h64.9c3.4,0,6.1-2.7,6.1-6.1V521
		c0-3.4-2.7-6.1-6.1-6.1h-64.9c-3.4,0-6.1,2.7-6.1,6.1v0.7C388.3,525.1,391,527.8,394.4,527.8z"/>
	<path fill="none" stroke="#0000FF" stroke-width="1.2857" stroke-miterlimit="10" d="M266.5,514.9h-64.9c-3.4,0-6.1,2.7-6.1,6.1
		v0.7c0,3.4,2.7,6.1,6.1,6.1h64.9c3.4,0,6.1-2.7,6.1-6.1V521C272.6,517.7,269.8,514.9,266.5,514.9z"/>
	<path fill="none" stroke="#0000FF" stroke-width="1.2857" stroke-miterlimit="10" d="M252.3,643.5h-37.9c-3.4,0-6.1-2.7-6.1-6.1
		v-52.1c0-3.4-2.7-6.1-6.1-6.1h-0.7c-3.4,0-6.1,2.7-6.1,6.1v52.1c0,3.4-2.7,6.1-6.1,6.1H85.2c-3.4,0-6.1,2.7-6.1,6.1v0.7
		c0,3.4,2.7,6.1,6.1,6.1h167.2c3.4,0,6.1-2.7,6.1-6.1v-0.7C258.4,646.2,255.7,643.5,252.3,643.5z"/>
	<path fill="none" stroke="#0000FF" stroke-width="1.2857" stroke-miterlimit="10" d="M65.6,521v0.7c0,3.4,2.7,6.1,6.1,6.1h52.7
		c3.4,0,6.1,2.7,6.1,6.1V586c0,3.4,2.7,6.1,6.1,6.1h0.6c3.4,0,6.1-2.8,6.1-6.1l-0.5-64.9c0-3.3-2.7-6-6.1-6h-65
		C68.3,514.9,65.6,517.7,65.6,521z"/>
	<path fill="none" stroke="#0000FF" stroke-width="1.2857" stroke-miterlimit="10" d="M259.7,328.2v64.9c0,3.4,2.7,6.1,6.1,6.1H395
		c3.4,0,6.1-2.7,6.1-6.1v-64.9c0-3.4-2.7-6.1-6.1-6.1H265.8C262.4,322.1,259.7,324.8,259.7,328.2z M382.2,386.4H278.7
		c-3.4,0-6.1-2.7-6.1-6.1V341c0-3.4,2.7-6.1,6.1-6.1h103.5c3.4,0,6.1,2.7,6.1,6.1v39.2C388.3,383.6,385.6,386.4,382.2,386.4z"/>
	<path fill="none" stroke="#0000FF" stroke-width="1.2857" stroke-miterlimit="10" d="M259.7,199.6v0.7c0,3.4,2.7,6.1,6.1,6.1h52.1
		c3.4,0,6.1,2.7,6.1,6.1v52.1c0,3.4,2.7,6.1,6.1,6.1h0.7c3.4,0,6.1-2.7,6.1-6.1v-52.1c0-3.4,2.7-6.1,6.1-6.1H395
		c3.4,0,6.1-2.7,6.1-6.1v-0.7c0-3.4-2.7-6.1-6.1-6.1H265.8C262.4,193.5,259.7,196.2,259.7,199.6z"/>
	<path fill="none" stroke="#0000FF" stroke-width="1.2857" stroke-miterlimit="10" d="M336.9,521.7v-52.1c0-3.4,2.7-6.1,6.1-6.1H395
		c3.4,0,6.1-2.7,6.1-6.1v-0.7c0-3.4-2.7-6.1-6.1-6.1H265.8c-3.4,0-6.1,2.7-6.1,6.1v0.7c0,3.4,2.7,6.1,6.1,6.1h52.1
		c3.4,0,6.1,2.7,6.1,6.1v52.1c0,3.4,2.7,6.1,6.1,6.1h0.7C334.1,527.8,336.9,525.1,336.9,521.7z"/>
	<path fill="none" stroke="#0000FF" stroke-width="1.2857" stroke-miterlimit="10" d="M336.9,650.3v-52.1c0-3.4,2.7-6.1,6.1-6.1H395
		c3.4,0,6.1-2.7,6.1-6.1v-0.7c0-3.4-2.7-6.1-6.1-6.1H265.8c-3.4,0-6.1,2.7-6.1,6.1v0.7c0,3.4,2.7,6.1,6.1,6.1h52.1
		c3.4,0,6.1,2.7,6.1,6.1v52.1c0,3.4,2.7,6.1,6.1,6.1h0.7C334.1,656.4,336.9,653.6,336.9,650.3z"/>
	<path fill="none" stroke="#0000FF" stroke-width="1.2857" stroke-miterlimit="10" d="M593.4,521.7V521c0-3.4-2.7-6.1-6.1-6.1h-64.9
		c-3.4,0-6.1,2.7-6.1,6.1l0,64.9c0,3.4,2.7,6.1,6.1,6.1l0,0c3.4,0,6.1-2.7,6.1-6.1v-52.1c0-3.4,2.7-6.1,6.1-6.1h52.7
		C590.6,527.8,593.4,525.1,593.4,521.7z"/>
	<path fill="none" stroke="#0000FF" stroke-width="1.2857" stroke-miterlimit="10" d="M458,579.2h-0.7c-3.4,0-6.1,2.7-6.1,6.1v52.1
		c0,3.4-2.7,6.1-6.1,6.1h-37.9c-3.4,0-6.1,2.7-6.1,6.1v0.7c0,3.4,2.7,6.1,6.1,6.1h167.2c3.4,0,6.1-2.7,6.1-6.1v-0.7
		c0-3.4-2.7-6.1-6.1-6.1H470.2c-3.4,0-6.1-2.7-6.1-6.1v-52.1C464.1,581.9,461.4,579.2,458,579.2z"/>
	<path fill="none" stroke="#0000FF" stroke-width="1.2857" stroke-miterlimit="10" d="M266.5,257.8h-52.1c-3.4,0-6.1-2.7-6.1-6.1
		v-52.1c0-3.4-2.7-6.1-6.1-6.1h-0.7c-3.4,0-6.1,2.7-6.1,6.1v129.2c0,3.4,2.7,6.1,6.1,6.1h0.7c3.4,0,6.1-2.7,6.1-6.1v-52.1
		c0-3.4,2.7-6.1,6.1-6.1h52.1c3.4,0,6.1-2.7,6.1-6.1v-0.7C272.6,260.5,269.8,257.8,266.5,257.8z"/>
	<path fill="none" stroke="#0000FF" stroke-width="1.2857" stroke-miterlimit="10" d="M446.5,257.8h-52.1c-3.4,0-6.1,2.7-6.1,6.1
		v0.7c0,3.4,2.7,6.1,6.1,6.1h52.1c3.4,0,6.1,2.7,6.1,6.1v52.1c0,3.4,2.7,6.1,6.1,6.1h0.7c3.4,0,6.1-2.7,6.1-6.1V199.6
		c0-3.4-2.7-6.1-6.1-6.1h-0.7c-3.4,0-6.1,2.7-6.1,6.1v52.1C452.6,255.1,449.8,257.8,446.5,257.8z"/>
	<path fill="none" stroke="#0000FF" stroke-width="1.2857" stroke-miterlimit="10" d="M651.6,450.6l-117.7,0c-3.4,0-6.1-2.7-6.1-6.1
		v-39.2c0-3.4,2.7-6.1,6.1-6.1h117.7c3.4,0,6.1-2.7,6.1-6.1v-0.7c0-3.4-2.7-6.1-6.1-6.1H521c-3.4,0-6.1,2.7-6.1,6.1l0,64.9
		c0,3.4,2.7,6.1,6.1,6.1h118.3c3.4,0,6.1,2.7,6.1,6.1v103.5c0,3.4-2.7,6.1-6.1,6.1h-39.2c-3.4,0-6.1,2.7-6.1,6.1v0.7
		c0,3.4,2.7,6.1,6.1,6.1h39.2c3.4,0,6.1,2.7,6.1,6.1v103.5c0,3.4-2.7,6.1-6.1,6.1H19.6c-3.4,0-6.1-2.7-6.1-6.1V598.2
		c0-3.4,2.7-6.1,6.1-6.1h39.2c3.4,0,6.1-2.7,6.1-6.1v-0.7c0-3.4-2.7-6.1-6.1-6.1H19.6c-3.4,0-6.1-2.7-6.1-6.1V469.6
		c0-3.4,2.7-6.1,6.1-6.1h117.7c3.4,0,6.1-2.7,6.1-6.1v-64.9c0-3.4-2.7-6.1-6.1-6.1H6.7c-3.4,0-6.1,2.7-6.1,6.1v0.7
		c0,3.4,2.7,6.1,6.1,6.1h117.7c3.4,0,6.1,2.7,6.1,6.1v39.2c0,3.4-2.7,6.1-6.1,6.1l-117,0c-3.4,0-6.1,2.7-6.1,6.1L0.8,714.6
		c0,3.4,2.7,6.1,6.1,6.1h645.3c3.4,0,6.1-2.7,6.1-6.1l-0.6-257.8C657.7,453.4,654.9,450.6,651.6,450.6z"/>
	<path fill="none" stroke="#0000FF" stroke-width="1.2857" stroke-miterlimit="10" d="M143.4,328.8v-64.9c0-3.4-2.7-6.1-6.1-6.1
		H19.6c-3.4,0-6.1-2.7-6.1-6.1V19.6c0-3.4,2.7-6.1,6.1-6.1l297.7,0c3.4,0,6.1,2.7,6.1,6.1l0.6,103.6c0,3.4,2.7,6.1,6.1,6.1h0.7
		c3.4,0,6.1-2.7,6.1-6.1V19.6c0-3.4,2.7-6.1,6.1-6.1h294.8c3.5,0,6.4,2.9,6.4,6.4l0.6,231.8c0,3.4-2.7,6.1-6.1,6.1H521
		c-3.4,0-6.1,2.7-6.1,6.1v64.9c0,3.4,2.7,6.1,6.1,6.1h6.8h123.8c3.4,0,6.1-2.7,6.1-6.1v-0.7c0-3.4-2.7-6.1-6.1-6.1H533.9
		c-3.4,0-6.1-2.7-6.1-6.1v-39.2c0-3.4,2.7-6.1,6.1-6.1h117.7c3.4,0,6.1-2.7,6.1-6.1c0-36.1-0.2-221.9-0.5-257.9c0-3.3-2.7-6-6.1-6
		c-61.8,0-581.5,0-643.7,0C4,0.6,1.3,3.4,1.3,6.7L0.7,263.9c0,3.4,2.7,6.1,6.1,6.1l123.1,0.6c0.4,0,0.6,0.3,0.6,0.6V316
		c0,3.4-2.7,6.1-6.1,6.1H6.7c-3.4,0-6.1,2.7-6.1,6.1v0.7c0,3.4,2.7,6.1,6.1,6.1h130.5C140.6,334.9,143.4,332.2,143.4,328.8z"/>
	<path fill="none" stroke="#0000FF" stroke-width="1.2857" stroke-miterlimit="10" d="M201.5,463.5h0.7c3.4,0,6.1-2.7,6.1-6.1v-64.9
		c0-3.4-2.7-6.1-6.1-6.1h-0.7c-3.4,0-6.1,2.7-6.1,6.1v64.9C195.4,460.8,198.2,463.5,201.5,463.5z"/>
	<path fill="none" stroke="#0000FF" stroke-width="1.2857" stroke-miterlimit="10" d="M459.3,386.4h-0.7c-3.4,0-6.1,2.7-6.1,6.1
		v64.9c0,3.4,2.7,6.1,6.1,6.1h0.7c3.4,0,6.1-2.7,6.1-6.1v-64.9C465.4,389.1,462.7,386.4,459.3,386.4z"/>
	<path fill="none" stroke="#0000FF" stroke-width="1.2857" stroke-miterlimit="10" d="M79.1,83.9v39.2c0,3.4,2.7,6.1,6.1,6.1h39.2
		c3.4,0,6.1-2.7,6.1-6.1V83.9c0-3.4-2.7-6.1-6.1-6.1H85.2C81.8,77.8,79.1,80.5,79.1,83.9z"/>
	<path fill="none" stroke="#0000FF" stroke-width="1.2857" stroke-miterlimit="10" d="M200.9,129.2h64.9c3.4,0,6.1-2.7,6.1-6.1V83.9
		c0-3.4-2.7-6.1-6.1-6.1h-64.9c-3.4,0-6.1,2.7-6.1,6.1v39.2C194.8,126.5,197.5,129.2,200.9,129.2z"/>
	<path fill="none" stroke="#0000FF" stroke-width="1.2857" stroke-miterlimit="10" d="M528.4,83.9v39.2c0,3.4,2.7,6.1,6.1,6.1h39.2
		c3.4,0,6.1-2.7,6.1-6.1V83.9c0-3.4-2.7-6.1-6.1-6.1h-39.2C531.2,77.8,528.4,80.5,528.4,83.9z"/>
	<path fill="none" stroke="#0000FF" stroke-width="1.2857" stroke-miterlimit="10" d="M458.7,77.8h-64.9c-3.4,0-6.1,2.7-6.1,6.1
		v39.2c0,3.4,2.7,6.1,6.1,6.1h64.9c3.4,0,6.1-2.7,6.1-6.1V83.9C464.8,80.5,462.1,77.8,458.7,77.8z"/>
</g>
</svg>
