<?xml version="1.0"?>
<svg width="224" height="47" xmlns="http://www.w3.org/2000/svg">

 <g>
  <title>background</title>
  <rect fill="none" id="canvas_background" height="49" width="226" y="-1" x="-1"/>
 </g>
 <g>
  <title>Layer 1</title>
  <path id="svg_3" d="m78.582298,23.51812l20.899994,-8.200002c0.500015,-0.2 0.700012,-0.8 0.500015,-1.3c-4.500015,-9.899999 -15.800003,-16.099999 -28.100006,-12.599999c-7.300003,2.1 -13.100006,8 -15.199997,15.4c-4.399994,15.599998 7.199997,29.799999 22.199997,29.799999c9.400009,0 17.5,-5.599998 21.100006,-13.700001c0.199997,-0.5 0,-0.999996 -0.500015,-1.199997l-20.899994,-8.200001z" fill="#F4D100"/>
  <path id="svg_6" d="m135.152039,23.544115l15.799988,-15.799999c0.400009,-0.4 0.400009,-1 0,-1.4c-5.599991,-5 -13.699982,-7.4 -22.199982,-5c-7.400009,2.2 -13.400009,8.100001 -15.5,15.499998c-4.400009,15.6 7.199982,29.800001 22.199982,29.800001c6,0 11.400009,-2.299999 15.5,-6c0.400009,-0.399998 0.400009,-1 0,-1.299999l-15.799988,-15.800001z" fill="#F4D100"/>
  <circle id="svg_57" r="23.200001" cy="23.525255" cx="23.903204" fill="#F4D100"/>
  <path id="svg_58" d="m190.346085,23.51812l20.900009,-8.200001c0.500015,-0.199999 0.699997,-0.799999 0.500015,-1.299999c-4.500015,-9.900001 -15.800018,-16.100001 -28.100021,-12.600001c-7.300003,2.1 -13.099991,8.000001 -15.199997,15.4c-4.399994,15.599998 7.199997,29.799999 22.199997,29.799999c9.400009,0 17.500015,-5.599998 21.100021,-13.700001c0.199982,-0.5 0,-0.999996 -0.500015,-1.199997l-20.900009,-8.200001z" fill="#F4D100"/>
 </g>
</svg>