<?xml version="1.0" encoding="utf-8"?>
<!-- Generator: Adobe Illustrator 19.1.0, SVG Export Plug-In . SVG Version: 6.00 Build 0)  -->
<!DOCTYPE svg PUBLIC "-//W3C//DTD SVG 1.1//EN" "http://www.w3.org/Graphics/SVG/1.1/DTD/svg11.dtd">
<svg version="1.1" id="Layer_1" xmlns="http://www.w3.org/2000/svg" xmlns:xlink="http://www.w3.org/1999/xlink" x="0px" y="0px"
	 viewBox="0 0 447.1 96.4" enable-background="new 0 0 447.1 96.4" xml:space="preserve">
<path fill="#F4D100" d="M373.1,23.5L365,2.6c-0.2-0.5-0.8-0.7-1.3-0.5c-10,4.5-16.2,15.8-12.7,28c2.1,7.3,8,13.1,15.4,15.2
	c15.7,4.4,29.9-7.2,29.9-22.2c0-9.4-5.6-17.5-13.7-21.1c-0.5-0.2-1,0-1.2,0.5L373.1,23.5z"/>
<path fill="#F4D100" d="M172,23.2l-20.9,8.2c-0.5,0.2-0.7,0.8-0.5,1.3c3.8,8.5,12.6,14.3,22.6,13.6c11.7-0.8,21-10.2,21.6-21.9
	c0.6-13.3-9.9-24.3-23.1-24.3c-9.4,0-17.5,5.6-21.1,13.7c-0.2,0.5,0,1,0.5,1.2L172,23.2z"/>
<path fill="#F4D100" d="M72.7,23.2l20.9-8.2c0.5-0.2,0.7-0.8,0.5-1.3C89.6,3.8,78.3-2.4,66,1.1c-7.3,2.1-13.1,8-15.2,15.4
	C46.4,32.1,58,46.3,73,46.3c9.4,0,17.5-5.6,21.1-13.7c0.2-0.5,0-1-0.5-1.2L72.7,23.2z"/>
<path fill="#F4D100" d="M323.3,23.5L307.4,7.7c-0.4-0.4-1-0.4-1.4,0c-5,5.6-7.4,13.7-5,22.2c2.1,7.5,8,13.4,15.5,15.5
	c15.6,4.4,29.8-7.2,29.8-22.2c0-6-2.3-11.4-6-15.5c-0.4-0.4-1-0.4-1.3,0L323.3,23.5z"/>
<path fill="#F4D100" d="M119,23.2L103.2,39c-0.4,0.4-0.4,1,0,1.4c5.6,5,13.7,7.4,22.2,5c7.5-2.1,13.4-8,15.5-15.5
	c4.4-15.6-7.2-29.8-22.2-29.8c-6,0-11.4,2.3-15.5,6c-0.4,0.4-0.4,1,0,1.3L119,23.2z"/>
<path fill="#F4D100" d="M22.8,23.2L38.6,7.4C39,7,39,6.4,38.6,6c-5.6-5-13.7-7.4-22.2-5C9,3.2,3,9.1,0.9,16.5
	c-4.4,15.6,7.2,29.8,22.2,29.8c6,0,11.4-2.3,15.5-6c0.4-0.4,0.4-1,0-1.3L22.8,23.2z"/>
<path fill="#F4D100" d="M273,22.9l-8.2,20.9c-0.2,0.5-0.8,0.7-1.3,0.5c-10-4.5-16.2-15.8-12.7-28c2.1-7.3,8-13.1,15.4-15.2
	c15.7-4.4,29.9,7.2,29.9,22.2c0,9.4-5.6,17.5-13.7,21.1c-0.5,0.2-1,0-1.2-0.5L273,22.9z"/>
<path fill="#F4D100" d="M222.6,22.9l-15.8,15.8c-0.4,0.4-1,0.4-1.4,0c-5-5.6-7.4-13.7-5-22.2c2.1-7.5,8-13.4,15.5-15.5
	c15.6-4.4,29.8,7.2,29.8,22.2c0,6-2.3,11.4-6,15.5c-0.4,0.4-1,0.4-1.3,0L222.6,22.9z"/>
<g>
	<path fill="#FF002B" d="M21.7,50.5c-11.3,0.2-20.8,14.9-20.8,33v10.9c0,0.8,1,1.3,1.6,0.7l3.9-3.9c0.7-0.7,2-0.7,2.7,0l4.9,5
		c0.4,0.4,1,0.4,1.3,0l4.9-5c0.7-0.8,2-0.8,2.7,0l4.9,5c0.4,0.4,1,0.4,1.3,0l4.9-5c0.7-0.8,2-0.8,2.7,0l3.9,3.9
		c0.6,0.6,1.6,0.2,1.6-0.7V83.4C42.4,65.3,33,50.7,21.7,50.5z"/>
	<ellipse fill="#FFFFFF" cx="16.2" cy="67.7" rx="4.9" ry="6.4"/>
	<circle fill="#0031FF" cx="17.5" cy="68.2" r="2.3"/>
	<ellipse fill="#FFFFFF" cx="28.1" cy="67.7" rx="4.9" ry="6.4"/>
	<circle fill="#0031FF" cx="29.5" cy="68.2" r="2.3"/>
</g>
<g>
	<path fill="#FF002B" d="M72,50.5c-11.3,0.2-20.8,14.9-20.8,33v5.3c0,0.7,0.3,1.3,0.7,1.8l5.6,5.6c0.4,0.4,1,0.4,1.4,0l4.8-4.9
		c0.8-0.8,2-0.8,2.7,0l4.8,4.9c0.4,0.4,1,0.4,1.4,0l4.8-4.9c0.7-0.8,2-0.8,2.7,0l4.8,4.9c0.4,0.4,1,0.4,1.4,0l5.6-5.6
		c0.5-0.5,0.7-1.1,0.7-1.8v-5.3C92.7,65.3,83.3,50.7,72,50.5z"/>
	<ellipse fill="#FFFFFF" cx="66.5" cy="67.7" rx="4.9" ry="6.4"/>
	<circle fill="#0031FF" cx="67.8" cy="68.2" r="2.3"/>
	<ellipse fill="#FFFFFF" cx="78.4" cy="67.7" rx="4.9" ry="6.4"/>
	<circle fill="#0031FF" cx="79.8" cy="68.2" r="2.3"/>
</g>
<g>
	<path fill="#FF002B" d="M122.3,50.5c-11.3,0.2-20.8,14.9-20.8,33v10.9c0,0.8,1,1.3,1.6,0.7l3.9-3.9c0.7-0.7,2-0.7,2.7,0l4.9,5
		c0.4,0.4,1,0.4,1.3,0l4.9-5c0.7-0.8,2-0.8,2.7,0l4.9,5c0.4,0.4,1,0.4,1.3,0l4.9-5c0.7-0.8,2-0.8,2.7,0l3.9,3.9
		c0.6,0.6,1.6,0.2,1.6-0.7V83.4C143,65.3,133.6,50.7,122.3,50.5z"/>
	<ellipse fill="#FFFFFF" cx="128.7" cy="67.7" rx="4.9" ry="6.4"/>
	<circle fill="#0031FF" cx="127.3" cy="68.2" r="2.3"/>
	<ellipse fill="#FFFFFF" cx="116.8" cy="67.7" rx="4.9" ry="6.4"/>
	<circle fill="#0031FF" cx="115.4" cy="68.2" r="2.3"/>
</g>
<g>
	<path fill="#FF002B" d="M172.6,50.5c-11.3,0.2-20.8,14.9-20.8,33v5.3c0,0.7,0.3,1.3,0.7,1.8l5.6,5.6c0.4,0.4,1,0.4,1.4,0l4.8-4.9
		c0.8-0.8,2-0.8,2.7,0l4.8,4.9c0.4,0.4,1,0.4,1.4,0l4.8-4.9c0.7-0.8,2-0.8,2.7,0l4.8,4.9c0.4,0.4,1,0.4,1.4,0l5.6-5.6
		c0.5-0.5,0.7-1.1,0.7-1.8v-5.3C193.3,65.3,183.9,50.7,172.6,50.5z"/>
	<ellipse fill="#FFFFFF" cx="179" cy="67.7" rx="4.9" ry="6.4"/>
	<circle fill="#0031FF" cx="177.6" cy="68.2" r="2.3"/>
	<ellipse fill="#FFFFFF" cx="167.1" cy="67.7" rx="4.9" ry="6.4"/>
	<circle fill="#0031FF" cx="165.7" cy="68.2" r="2.3"/>
</g>
<g>
	<path fill="#FF002B" d="M222.9,50.5c-11.3,0.2-20.8,14.9-20.8,33v10.9c0,0.8,1,1.3,1.6,0.7l3.9-3.9c0.7-0.7,2-0.7,2.7,0l4.9,5
		c0.4,0.4,1,0.4,1.3,0l4.9-5c0.7-0.8,2-0.8,2.7,0l4.9,5c0.4,0.4,1,0.4,1.3,0l4.9-5c0.7-0.8,2-0.8,2.7,0l3.9,3.9
		c0.6,0.6,1.6,0.2,1.6-0.7V83.4C243.6,65.3,234.2,50.7,222.9,50.5z"/>
	<ellipse fill="#FFFFFF" cx="229.3" cy="67.7" rx="4.9" ry="6.4"/>
	<circle fill="#0031FF" cx="229.2" cy="70.7" r="2.3"/>
	<ellipse fill="#FFFFFF" cx="217.4" cy="67.7" rx="4.9" ry="6.4"/>
	<circle fill="#0031FF" cx="217.2" cy="70.7" r="2.3"/>
</g>
<g>
	<path fill="#FF002B" d="M273.2,50.5c-11.3,0.2-20.8,14.9-20.8,33v5.3c0,0.7,0.3,1.3,0.7,1.8l5.6,5.6c0.4,0.4,1,0.4,1.4,0l4.8-4.9
		c0.8-0.8,2-0.8,2.7,0l4.8,4.9c0.4,0.4,1,0.4,1.4,0l4.8-4.9c0.7-0.8,2-0.8,2.7,0l4.8,4.9c0.4,0.4,1,0.4,1.4,0l5.6-5.6
		c0.5-0.5,0.7-1.1,0.7-1.8v-5.3C293.9,65.3,284.5,50.7,273.2,50.5z"/>
	<ellipse fill="#FFFFFF" cx="279.6" cy="67.7" rx="4.9" ry="6.4"/>
	<circle fill="#0031FF" cx="279.5" cy="70.7" r="2.3"/>
	<ellipse fill="#FFFFFF" cx="267.7" cy="67.7" rx="4.9" ry="6.4"/>
	<circle fill="#0031FF" cx="267.5" cy="70.7" r="2.3"/>
</g>
<g>
	<path fill="#FF002B" d="M323.5,50.5c-11.3,0.2-20.8,14.9-20.8,33v10.9c0,0.8,1,1.3,1.6,0.7l3.9-3.9c0.7-0.7,2-0.7,2.7,0l4.9,5
		c0.4,0.4,1,0.4,1.3,0l4.9-5c0.7-0.8,2-0.8,2.7,0l4.9,5c0.4,0.4,1,0.4,1.3,0l4.9-5c0.7-0.8,2-0.8,2.7,0l3.9,3.9
		c0.6,0.6,1.6,0.2,1.6-0.7V83.4C344.2,65.3,334.8,50.7,323.5,50.5z"/>
	<ellipse fill="#FFFFFF" cx="329.9" cy="67.7" rx="4.9" ry="6.4"/>
	<circle fill="#0031FF" cx="329.8" cy="64.8" r="2.3"/>
	<ellipse fill="#FFFFFF" cx="318" cy="67.7" rx="4.9" ry="6.4"/>
	<circle fill="#0031FF" cx="317.8" cy="64.8" r="2.3"/>
</g>
<g>
	<path fill="#FF002B" d="M373.8,50.5c-11.3,0.2-20.8,14.9-20.8,33v5.3c0,0.7,0.3,1.3,0.7,1.8l5.6,5.6c0.4,0.4,1,0.4,1.4,0l4.8-4.9
		c0.8-0.8,2-0.8,2.7,0l4.8,4.9c0.4,0.4,1,0.4,1.4,0l4.8-4.9c0.7-0.8,2-0.8,2.7,0l4.8,4.9c0.4,0.4,1,0.4,1.4,0l5.6-5.6
		c0.5-0.5,0.7-1.1,0.7-1.8v-5.3C394.5,65.3,385.1,50.7,373.8,50.5z"/>
	<ellipse fill="#FFFFFF" cx="380.2" cy="67.7" rx="4.9" ry="6.4"/>
	<circle fill="#0031FF" cx="380.1" cy="64.8" r="2.3"/>
	<ellipse fill="#FFFFFF" cx="368.3" cy="67.7" rx="4.9" ry="6.4"/>
	<circle fill="#0031FF" cx="368.1" cy="64.8" r="2.3"/>
</g>
<circle fill="#F4D100" cx="423.9" cy="23.2" r="23.2"/>
</svg>
